<svg width="24" height="24" viewBox="0 0 24 24" fill="none" xmlns="http://www.w3.org/2000/svg">
<path d="M20.4 5.05263H16.8V3.78947C16.8 2.78444 16.4207 1.82058 15.7456 1.10991C15.0705 0.399247 14.1548 0 13.2 0H10.8C9.84522 0 8.92955 0.399247 8.25442 1.10991C7.57928 1.82058 7.2 2.78444 7.2 3.78947V5.05263H3.6C2.64522 5.05263 1.72955 5.45188 1.05442 6.16254C0.379285 6.87321 0 7.83707 0 8.8421V20.2105C0 21.2156 0.379285 22.1794 1.05442 22.8901C1.72955 23.6008 2.64522 24 3.6 24H20.4C21.3548 24 22.2705 23.6008 22.9456 22.8901C23.6207 22.1794 24 21.2156 24 20.2105V8.8421C24 7.83707 23.6207 6.87321 22.9456 6.16254C22.2705 5.45188 21.3548 5.05263 20.4 5.05263ZM9.6 3.78947C9.6 3.45446 9.72643 3.13317 9.95147 2.89629C10.1765 2.6594 10.4817 2.52632 10.8 2.52632H13.2C13.5183 2.52632 13.8235 2.6594 14.0485 2.89629C14.2736 3.13317 14.4 3.45446 14.4 3.78947V5.05263H9.6V3.78947ZM21.6 20.2105C21.6 20.5455 21.4736 20.8668 21.2485 21.1037C21.0235 21.3406 20.7183 21.4737 20.4 21.4737H3.6C3.28174 21.4737 2.97652 21.3406 2.75147 21.1037C2.52643 20.8668 2.4 20.5455 2.4 20.2105V13.8316H6V15.1579C6 15.4929 6.12643 15.8142 6.35147 16.0511C6.57652 16.288 6.88174 16.4211 7.2 16.4211C7.51826 16.4211 7.82348 16.288 8.04853 16.0511C8.27357 15.8142 8.4 15.4929 8.4 15.1579V13.8316H15.6V15.1579C15.6 15.4929 15.7264 15.8142 15.9515 16.0511C16.1765 16.288 16.4817 16.4211 16.8 16.4211C17.1183 16.4211 17.4235 16.288 17.6485 16.0511C17.8736 15.8142 18 15.4929 18 15.1579V13.8316H21.6V20.2105ZM21.6 11.3684H2.4V8.8421C2.4 8.50709 2.52643 8.18581 2.75147 7.94892C2.97652 7.71203 3.28174 7.57895 3.6 7.57895H20.4C20.7183 7.57895 21.0235 7.71203 21.2485 7.94892C21.4736 8.18581 21.6 8.50709 21.6 8.8421V11.3684Z" fill="#FAF8F0"/>
</svg>
