<svg width="24" height="24" viewBox="0 0 24 24" fill="none" xmlns="http://www.w3.org/2000/svg">
<path d="M8.17443 11.1511C8.06176 11.2626 7.97233 11.3953 7.9113 11.5415C7.85027 11.6877 7.81885 11.8445 7.81885 12.0029C7.81885 12.1613 7.85027 12.3181 7.9113 12.4643C7.97233 12.6105 8.06176 12.7432 8.17443 12.8547C8.39966 13.0781 8.70433 13.2036 9.02191 13.2036C9.33949 13.2036 9.64417 13.0781 9.8694 12.8547C9.98207 12.7432 10.0715 12.6105 10.1325 12.4643C10.1936 12.3181 10.225 12.1613 10.225 12.0029C10.225 11.8445 10.1936 11.6877 10.1325 11.5415C10.0715 11.3953 9.98207 11.2626 9.8694 11.1511C9.64417 10.9277 9.33949 10.8022 9.02191 10.8022C8.70433 10.8022 8.39966 10.9277 8.17443 11.1511ZM11.1436 14.1264C10.9197 14.3512 10.7941 14.6552 10.7941 14.9722C10.7941 15.2891 10.9197 15.5932 11.1436 15.818C11.2554 15.9304 11.3883 16.0197 11.5348 16.0806C11.6813 16.1415 11.8384 16.1728 11.9971 16.1728C12.1558 16.1728 12.3129 16.1415 12.4594 16.0806C12.6059 16.0197 12.7389 15.9304 12.8506 15.818C13.0745 15.5932 13.2002 15.2891 13.2002 14.9722C13.2002 14.6552 13.0745 14.3512 12.8506 14.1264C12.7389 14.0139 12.6059 13.9247 12.4594 13.8638C12.3129 13.8029 12.1558 13.7715 11.9971 13.7715C11.8384 13.7715 11.6813 13.8029 11.5348 13.8638C11.3883 13.9247 11.2554 14.0139 11.1436 14.1264ZM21.9626 2.12929C20.655 0.813482 18.8892 0.0516998 17.0329 0.00253606C15.1766 -0.0466277 13.3729 0.620615 11.9971 1.86536C10.6277 0.635148 8.83855 -0.0254106 6.99663 0.0192071C5.15471 0.0638247 3.39973 0.810236 2.09177 2.1053C0.792312 3.41279 0.0443995 5.1676 0.00191402 7.00869C-0.0405715 8.84977 0.625602 10.6371 1.86337 12.0029C0.937955 13.0354 0.330729 14.3125 0.114557 15.6809C-0.101614 17.0493 0.0824534 18.4509 0.644671 19.7175C1.20689 20.984 2.12337 22.0618 3.28414 22.8215C4.44492 23.5811 5.80067 23.9903 7.1887 24C8.96809 24.0019 10.6836 23.3384 11.9971 22.1404C13.3672 23.3742 15.1589 24.0369 17.0037 23.9923C18.8485 23.9476 20.606 23.199 21.9145 21.9005C23.2123 20.5915 23.958 18.8358 23.9983 16.9947C24.0385 15.1536 23.3702 13.3672 22.1309 12.0029C23.3702 10.6386 24.0385 8.85215 23.9983 7.01108C23.958 5.17001 23.2123 3.41435 21.9145 2.1053L21.9626 2.12929ZM20.2075 3.80888C21.0435 4.66714 21.5279 5.80621 21.5657 7.00257C21.6035 8.19892 21.192 9.36619 20.4119 10.2753L13.7282 3.60493C14.6471 2.844 15.8131 2.4447 17.0065 2.48227C18.2 2.51984 19.3385 2.99167 20.2075 3.80888ZM3.78674 20.1969C2.95076 19.3387 2.46633 18.1996 2.42852 17.0032C2.39071 15.8069 2.80225 14.6396 3.58238 13.7305L10.3142 20.4489C9.38508 21.2143 8.20619 21.6117 7.00232 21.5652C5.79845 21.5187 4.65383 21.0317 3.78674 20.1969ZM20.2075 20.1969C19.2948 21.0681 18.0805 21.5543 16.8176 21.5543C15.5546 21.5543 14.3404 21.0681 13.4276 20.1969L3.81078 10.5992C2.91521 9.70012 2.41253 8.48384 2.41253 7.21606C2.41253 5.94828 2.91521 4.732 3.81078 3.83288C4.7117 2.93909 5.93041 2.43741 7.20072 2.43741C8.47104 2.43741 9.68974 2.93909 10.5907 3.83288L20.2075 13.4306C21.1031 14.3297 21.6058 15.546 21.6058 16.8137C21.6058 18.0815 21.1031 19.2978 20.2075 20.1969ZM14.1249 11.1511C14.0122 11.2626 13.9228 11.3953 13.8617 11.5415C13.8007 11.6877 13.7693 11.8445 13.7693 12.0029C13.7693 12.1613 13.8007 12.3181 13.8617 12.4643C13.9228 12.6105 14.0122 12.7432 14.1249 12.8547C14.3501 13.0781 14.6548 13.2036 14.9723 13.2036C15.2899 13.2036 15.5946 13.0781 15.8198 12.8547C15.9325 12.7432 16.0219 12.6105 16.083 12.4643C16.144 12.3181 16.1754 12.1613 16.1754 12.0029C16.1754 11.8445 16.144 11.6877 16.083 11.5415C16.0219 11.3953 15.9325 11.2626 15.8198 11.1511C15.5946 10.9277 15.2899 10.8022 14.9723 10.8022C14.6548 10.8022 14.3501 10.9277 14.1249 11.1511ZM11.1436 8.18782C10.9197 8.4126 10.7941 8.71667 10.7941 9.03362C10.7941 9.35056 10.9197 9.65463 11.1436 9.87941C11.2554 9.99186 11.3883 10.0811 11.5348 10.142C11.6813 10.2029 11.8384 10.2343 11.9971 10.2343C12.1558 10.2343 12.3129 10.2029 12.4594 10.142C12.6059 10.0811 12.7389 9.99186 12.8506 9.87941C13.0745 9.65463 13.2002 9.35056 13.2002 9.03362C13.2002 8.71667 13.0745 8.4126 12.8506 8.18782C12.7389 8.07538 12.6059 7.98613 12.4594 7.92522C12.3129 7.86431 12.1558 7.83295 11.9971 7.83295C11.8384 7.83295 11.6813 7.86431 11.5348 7.92522C11.3883 7.98613 11.2554 8.07538 11.1436 8.18782Z" fill="white"/>
</svg>
