<svg width="22" height="20" viewBox="0 0 22 20" fill="none" xmlns="http://www.w3.org/2000/svg">
<path d="M6.6 0.3L3.14286 3.6L1.78095 2.3C1.3619 1.9 0.733333 1.9 0.314286 2.3C-0.104762 2.7 -0.104762 3.3 0.314286 3.7L2.40952 5.7C2.61905 5.9 2.82857 6 3.14286 6C3.45714 6 3.66667 5.9 3.87619 5.7L8.06667 1.7C8.48571 1.3 8.48571 0.7 8.06667 0.3C7.64762 -0.1 7.01905 -0.1 6.6 0.3ZM6.6 7.3L3.14286 10.6L1.78095 9.3C1.3619 8.9 0.733333 8.9 0.314286 9.3C-0.104762 9.7 -0.104762 10.3 0.314286 10.7L2.40952 12.7C2.61905 12.9 2.82857 13 3.14286 13C3.45714 13 3.66667 12.9 3.87619 12.7L8.06667 8.7C8.48571 8.3 8.48571 7.7 8.06667 7.3C7.64762 6.9 7.01905 6.9 6.6 7.3ZM6.6 14.3L3.14286 17.6L1.78095 16.3C1.3619 15.9 0.733333 15.9 0.314286 16.3C-0.104762 16.7 -0.104762 17.3 0.314286 17.7L2.40952 19.7C2.61905 19.9 2.82857 20 3.14286 20C3.45714 20 3.66667 19.9 3.87619 19.7L8.06667 15.7C8.48571 15.3 8.48571 14.7 8.06667 14.3C7.64762 13.9 7.01905 13.9 6.6 14.3ZM12.5714 5H20.9524C21.581 5 22 4.6 22 4C22 3.4 21.581 3 20.9524 3H12.5714C11.9429 3 11.5238 3.4 11.5238 4C11.5238 4.6 11.9429 5 12.5714 5ZM20.9524 10H12.5714C11.9429 10 11.5238 10.4 11.5238 11C11.5238 11.6 11.9429 12 12.5714 12H20.9524C21.581 12 22 11.6 22 11C22 10.4 21.581 10 20.9524 10ZM20.9524 17H12.5714C11.9429 17 11.5238 17.4 11.5238 18C11.5238 18.6 11.9429 19 12.5714 19H20.9524C21.581 19 22 18.6 22 18C22 17.4 21.581 17 20.9524 17Z" fill="#FAF8F0"/>
</svg>
