<svg width="24" height="24" viewBox="0 0 24 24" fill="none" xmlns="http://www.w3.org/2000/svg">
<path d="M11.9871 0C9.97613 0.00205619 7.99782 0.508171 6.23314 1.47204C4.46847 2.4359 2.97379 3.82673 1.88588 5.51727C0.355744 7.91597 -0.273681 10.7794 0.109538 13.5983C0.492756 16.4172 1.86378 19.0089 3.97878 20.9125C6.09378 22.8161 8.81567 23.9081 11.6604 23.9945C14.5051 24.0808 17.2882 23.1558 19.5149 21.3839C21.4528 19.8247 22.8592 17.7032 23.5404 15.3115C24.2216 12.9199 24.144 10.376 23.3182 8.0303C22.4925 5.68463 20.9592 3.65267 18.9298 2.21445C16.9005 0.776235 14.4748 0.00254453 11.9871 0ZM14.3921 2.71657C16.0538 3.14652 17.5702 4.01304 18.7839 5.22625C19.9976 6.43946 20.8645 7.95517 21.2946 9.61616C19.284 9.67276 17.3215 10.2439 15.5946 11.2749C14.7275 10.2917 13.7603 9.40138 12.7086 8.61848C13.7682 6.82863 14.348 4.79585 14.3921 2.71657ZM11.9871 2.40404C11.9831 4.12897 11.5092 5.82025 10.6162 7.29626C10.4358 7.2001 10.2675 7.09192 10.0871 7.00778C8.53867 6.19111 6.883 5.59629 5.16877 5.24081C6.06229 4.34232 7.12463 3.62918 8.29474 3.14235C9.46484 2.65553 10.7197 2.40462 11.9871 2.40404ZM3.56941 7.40444C5.45547 7.66634 7.2821 8.25192 8.96874 9.13535L9.12507 9.23151C8.2375 10.1179 7.18367 10.8205 6.02397 11.299C4.86428 11.7775 3.62151 12.0226 2.36689 12.0202C2.37357 10.4051 2.78714 8.81767 3.56941 7.40444ZM9.58203 21.3238C7.92034 20.8939 6.40399 20.0274 5.19027 18.8142C3.97656 17.6009 3.10967 16.0852 2.67954 14.4242C4.2857 14.3886 5.86802 14.0284 7.3312 13.3652C8.79439 12.7021 10.1082 11.7498 11.1934 10.5658C12.0627 11.2081 12.8681 11.9327 13.5985 12.7294C12.3807 13.8147 11.3967 15.1363 10.7062 16.6138C10.0157 18.0913 9.63324 19.6939 9.58203 21.3238ZM11.9871 21.6364C11.9897 20.3158 12.2643 19.0099 12.794 17.8001C13.3236 16.5903 14.0969 15.5025 15.0655 14.6045C15.1377 14.7007 15.2098 14.7848 15.27 14.881C16.2777 16.4235 17.0252 18.1209 17.4826 19.9055C15.8731 21.035 13.9536 21.6396 11.9871 21.6364ZM19.4547 18.0303C18.9325 16.44 18.2049 14.9247 17.2902 13.5227L17.0377 13.2222C18.4359 12.4447 20.0073 12.0313 21.6073 12.0202C21.5953 14.2101 20.836 16.3304 19.4547 18.0303Z" fill="#FAF8F0"/>
</svg>
