<svg width="24" height="18" viewBox="0 0 24 18" fill="none" xmlns="http://www.w3.org/2000/svg">
<path d="M23.3029 14.5286L23.182 14.4L13.2693 8.35714C13.2693 8.22857 13.3902 8.1 13.5111 7.97143L14.4782 6.94286C15.2035 6.04286 15.5662 5.14286 15.5662 4.11429V3.85714C15.5662 1.67143 13.9946 0 11.9396 0C9.88448 0 8.31295 1.67143 8.31295 3.85714C8.31295 4.62857 8.7965 5.14286 9.52182 5.14286C10.2471 5.14286 10.7307 4.62857 10.7307 3.85714C10.7307 3.08571 11.2142 2.57143 11.9396 2.57143C12.6649 2.57143 13.1484 3.08571 13.1484 3.85714V4.11429C13.1484 4.5 13.0275 4.75714 12.7858 5.01429L11.8187 6.04286C11.2142 6.68571 10.9725 7.45714 10.8516 8.22857L0.817969 14.4C0.817969 14.4 0.697083 14.4 0.697083 14.5286C0.0926485 15.0429 -0.149125 15.9429 0.0926485 16.7143C0.334422 17.4857 1.05974 18 1.78506 18H22.2149C23.0611 18 23.6656 17.4857 23.9074 16.7143C24.1491 15.8143 23.9074 15.0429 23.3029 14.5286ZM3.84014 15.4286L11.9396 10.5429L20.039 15.4286H3.84014Z" fill="#FAF8F0"/>
</svg>
