<svg width="22" height="22" viewBox="0 0 22 22" fill="none" xmlns="http://www.w3.org/2000/svg">
<path d="M18.7 4.88889H17.6V3.66667C17.6 2.69421 17.2523 1.76158 16.6335 1.07394C16.0146 0.386309 15.1752 0 14.3 0H3.3C2.42479 0 1.58542 0.386309 0.966548 1.07394C0.347678 1.76158 0 2.69421 0 3.66667V18.3333C0 19.3058 0.347678 20.2384 0.966548 20.9261C1.58542 21.6137 2.42479 22 3.3 22H18.7C19.5752 22 20.4146 21.6137 21.0335 20.9261C21.6523 20.2384 22 19.3058 22 18.3333V8.55556C22 7.5831 21.6523 6.65046 21.0335 5.96283C20.4146 5.2752 19.5752 4.88889 18.7 4.88889ZM3.3 2.44444H14.3C14.5917 2.44444 14.8715 2.57321 15.0778 2.80243C15.2841 3.03164 15.4 3.34251 15.4 3.66667V4.88889H3.3C3.00826 4.88889 2.72847 4.76012 2.52218 4.53091C2.31589 4.3017 2.2 3.99082 2.2 3.66667C2.2 3.34251 2.31589 3.03164 2.52218 2.80243C2.72847 2.57321 3.00826 2.44444 3.3 2.44444ZM19.8 14.6667H18.7C18.4083 14.6667 18.1285 14.5379 17.9222 14.3087C17.7159 14.0795 17.6 13.7686 17.6 13.4444C17.6 13.1203 17.7159 12.8094 17.9222 12.5802C18.1285 12.351 18.4083 12.2222 18.7 12.2222H19.8V14.6667ZM19.8 9.77778H18.7C17.8248 9.77778 16.9854 10.1641 16.3665 10.8517C15.7477 11.5394 15.4 12.472 15.4 13.4444C15.4 14.4169 15.7477 15.3495 16.3665 16.0372C16.9854 16.7248 17.8248 17.1111 18.7 17.1111H19.8V18.3333C19.8 18.6575 19.6841 18.9684 19.4778 19.1976C19.2715 19.4268 18.9917 19.5556 18.7 19.5556H3.3C3.00826 19.5556 2.72847 19.4268 2.52218 19.1976C2.31589 18.9684 2.2 18.6575 2.2 18.3333V7.12556C2.55339 7.26369 2.92538 7.33395 3.3 7.33333H18.7C18.9917 7.33333 19.2715 7.4621 19.4778 7.69131C19.6841 7.92053 19.8 8.2314 19.8 8.55556V9.77778Z" fill="#FAF8F0"/>
</svg>
