<svg width="16" height="24" viewBox="0 0 16 24" fill="none" xmlns="http://www.w3.org/2000/svg">
<path d="M9.84571 15.2727H7.38399C7.05755 15.2727 6.74447 15.3877 6.51364 15.5923C6.28281 15.7968 6.15313 16.0743 6.15313 16.3636C6.15313 16.653 6.28281 16.9305 6.51364 17.135C6.74447 17.3396 7.05755 17.4546 7.38399 17.4546H9.84571C10.1722 17.4546 10.4852 17.3396 10.7161 17.135C10.9469 16.9305 11.0766 16.653 11.0766 16.3636C11.0766 16.0743 10.9469 15.7968 10.7161 15.5923C10.4852 15.3877 10.1722 15.2727 9.84571 15.2727ZM12.3074 7.63638V4.36366C12.3074 4.07433 12.1777 3.79686 11.9469 3.59227C11.7161 3.38769 11.403 3.27275 11.0766 3.27275H9.84571V2.18184H11.0766C11.403 2.18184 11.7161 2.06691 11.9469 1.86232C12.1777 1.65774 12.3074 1.38026 12.3074 1.09094C12.3074 0.801609 12.1777 0.524132 11.9469 0.319548C11.7161 0.114963 11.403 2.81416e-05 11.0766 2.81416e-05H5.21256C4.15623 -0.00310912 3.12004 0.256122 2.22147 0.74833C1.32289 1.24054 0.597892 1.94603 0.12866 2.78482C-0.0164297 3.04354 -0.0398151 3.3427 0.0636335 3.61668C0.167082 3.89065 0.388918 4.11708 0.680479 4.24629C0.972041 4.37549 1.30952 4.39693 1.61889 4.30589C1.92826 4.21486 2.18426 4.01878 2.33074 3.76068C2.59667 3.28515 3.00761 2.88517 3.51698 2.60611C4.02634 2.32705 4.61374 2.18007 5.21256 2.18184H7.38399V3.27275H6.15313C5.82669 3.27275 5.51362 3.38769 5.28278 3.59227C5.05195 3.79686 4.92227 4.07433 4.92227 4.36366V7.63638C3.94327 7.63733 3.00467 7.98244 2.31241 8.59599C1.62015 9.20954 1.23077 10.0414 1.2297 10.9091V20.7273C1.23077 21.595 1.62015 22.4268 2.31241 23.0404C3.00467 23.6539 3.94327 23.9991 4.92227 24H12.3074C13.2864 23.9991 14.225 23.6539 14.9173 23.0404C15.6095 22.4268 15.9989 21.595 16 20.7273V10.9091C15.9989 10.0414 15.6095 9.20954 14.9173 8.59599C14.225 7.98244 13.2864 7.63733 12.3074 7.63638ZM7.38399 5.45457H9.84571V7.63638H7.38399V5.45457ZM13.5383 20.7273C13.5379 21.0165 13.408 21.2937 13.1773 21.4983C12.9466 21.7028 12.6337 21.8178 12.3074 21.8182H4.92227C4.59596 21.8178 4.28313 21.7028 4.05239 21.4983C3.82165 21.2937 3.69184 21.0165 3.69142 20.7273V10.9091C3.69184 10.6199 3.82165 10.3426 4.05239 10.1381C4.28313 9.93363 4.59596 9.81857 4.92227 9.8182H12.3074C12.6337 9.81857 12.9466 9.93363 13.1773 10.1381C13.408 10.3426 13.5379 10.6199 13.5383 10.9091V20.7273Z" fill="white"/>
</svg>
