<svg width="30" height="32" viewBox="0 0 30 32" fill="none" xmlns="http://www.w3.org/2000/svg">
<g filter="url(#filter0_d_552_292)">
<path d="M22.3333 12.18V1.2C22.3333 0.88174 22.2046 0.576515 21.9753 0.351472C21.7461 0.126428 21.4353 0 21.1111 0C20.787 0 20.4761 0.126428 20.2469 0.351472C20.0177 0.576515 19.8889 0.88174 19.8889 1.2V12.18C18.8304 12.4818 17.9004 13.1131 17.2391 13.9788C16.5778 14.8445 16.2209 15.8978 16.2222 16.98C16.2222 19.44 18.08 23.94 21.1111 23.94C24.1422 23.94 26 19.44 26 16.98C26.0013 15.8978 25.6444 14.8445 24.9831 13.9788C24.3218 13.1131 23.3918 12.4818 22.3333 12.18V12.18ZM21.1111 21.6C20.1333 21.6 18.6667 18.876 18.6667 17.04C18.6367 16.3723 18.8769 15.72 19.3348 15.2255C19.7928 14.7309 20.4313 14.4342 21.1111 14.4C21.791 14.4342 22.4295 14.7309 22.8874 15.2255C23.3453 15.72 23.5855 16.3723 23.5556 17.04C23.5556 18.876 22.0889 21.6 21.1111 21.6ZM12.5556 0C12.2314 0 11.9205 0.126428 11.6913 0.351472C11.4621 0.576515 11.3333 0.88174 11.3333 1.2V7.752L10.1111 8.556V1.2C10.1111 0.88174 9.98234 0.576515 9.75313 0.351472C9.52392 0.126428 9.21304 0 8.88889 0C8.56473 0 8.25386 0.126428 8.02465 0.351472C7.79544 0.576515 7.66667 0.88174 7.66667 1.2V8.556L6.44444 7.752V1.2C6.44444 0.88174 6.31567 0.576515 6.08646 0.351472C5.85725 0.126428 5.54638 0 5.22222 0C4.89807 0 4.58719 0.126428 4.35798 0.351472C4.12877 0.576515 4 0.88174 4 1.2V8.4C4.00104 8.59765 4.05179 8.79198 4.14774 8.96574C4.24369 9.1395 4.38187 9.28729 4.55 9.396L7.66667 11.448V22.8C7.66667 23.1183 7.79544 23.4235 8.02465 23.6485C8.25386 23.8736 8.56473 24 8.88889 24C9.21304 24 9.52392 23.8736 9.75313 23.6485C9.98234 23.4235 10.1111 23.1183 10.1111 22.8V11.448L13.2278 9.396C13.3959 9.28729 13.5341 9.1395 13.63 8.96574C13.726 8.79198 13.7767 8.59765 13.7778 8.4V1.2C13.7778 0.88174 13.649 0.576515 13.4198 0.351472C13.1906 0.126428 12.8797 0 12.5556 0V0Z" fill="white"/>
</g>
<defs>
<filter id="filter0_d_552_292" x="0" y="0" width="30" height="32" filterUnits="userSpaceOnUse" color-interpolation-filters="sRGB">
<feFlood flood-opacity="0" result="BackgroundImageFix"/>
<feColorMatrix in="SourceAlpha" type="matrix" values="0 0 0 0 0 0 0 0 0 0 0 0 0 0 0 0 0 0 127 0" result="hardAlpha"/>
<feOffset dy="4"/>
<feGaussianBlur stdDeviation="2"/>
<feComposite in2="hardAlpha" operator="out"/>
<feColorMatrix type="matrix" values="0 0 0 0 0 0 0 0 0 0 0 0 0 0 0 0 0 0 0.25 0"/>
<feBlend mode="normal" in2="BackgroundImageFix" result="effect1_dropShadow_552_292"/>
<feBlend mode="normal" in="SourceGraphic" in2="effect1_dropShadow_552_292" result="shape"/>
</filter>
</defs>
</svg>
