<svg width="24" height="24" viewBox="0 0 24 24" fill="none" xmlns="http://www.w3.org/2000/svg">
<path d="M20 12.18V1.2C20 0.88174 19.8595 0.576515 19.6095 0.351472C19.3594 0.126428 19.0203 0 18.6667 0C18.313 0 17.9739 0.126428 17.7239 0.351472C17.4738 0.576515 17.3333 0.88174 17.3333 1.2V12.18C16.1786 12.4818 15.1641 13.1131 14.4427 13.9788C13.7212 14.8445 13.3319 15.8978 13.3333 16.98C13.3333 19.44 15.36 23.94 18.6667 23.94C21.9733 23.94 24 19.44 24 16.98C24.0014 15.8978 23.6121 14.8445 22.8907 13.9788C22.1692 13.1131 21.1547 12.4818 20 12.18ZM18.6667 21.6C17.6 21.6 16 18.876 16 17.04C15.9673 16.3723 16.2294 15.72 16.7289 15.2255C17.2285 14.7309 17.925 14.4342 18.6667 14.4C19.4083 14.4342 20.1049 14.7309 20.6044 15.2255C21.104 15.72 21.366 16.3723 21.3333 17.04C21.3333 18.876 19.7333 21.6 18.6667 21.6ZM9.33333 0C8.97971 0 8.64057 0.126428 8.39052 0.351472C8.14047 0.576515 8 0.88174 8 1.2V7.752L6.66667 8.556V1.2C6.66667 0.88174 6.52619 0.576515 6.27614 0.351472C6.02609 0.126428 5.68695 0 5.33333 0C4.97971 0 4.64057 0.126428 4.39052 0.351472C4.14048 0.576515 4 0.88174 4 1.2V8.556L2.66667 7.752V1.2C2.66667 0.88174 2.52619 0.576515 2.27614 0.351472C2.02609 0.126428 1.68695 0 1.33333 0C0.979711 0 0.640573 0.126428 0.390524 0.351472C0.140476 0.576515 0 0.88174 0 1.2V8.4C0.00113616 8.59765 0.0565002 8.79198 0.161173 8.96574C0.265845 9.1395 0.416585 9.28729 0.6 9.396L4 11.448V22.8C4 23.1183 4.14048 23.4235 4.39052 23.6485C4.64057 23.8736 4.97971 24 5.33333 24C5.68695 24 6.02609 23.8736 6.27614 23.6485C6.52619 23.4235 6.66667 23.1183 6.66667 22.8V11.448L10.0667 9.396C10.2501 9.28729 10.4008 9.1395 10.5055 8.96574C10.6102 8.79198 10.6655 8.59765 10.6667 8.4V1.2C10.6667 0.88174 10.5262 0.576515 10.2761 0.351472C10.0261 0.126428 9.68695 0 9.33333 0Z" fill="#FFB13D"/>
</svg>
