<svg width="24" height="24" viewBox="0 0 24 24" fill="none" xmlns="http://www.w3.org/2000/svg">
<path d="M5.89007 10.8667C6.35548 10.8691 6.81393 10.7571 7.22261 10.541C7.6214 10.318 7.96206 10.0092 8.21826 9.63817C8.47447 9.26718 8.63936 8.84401 8.70021 8.40135C8.82957 7.4993 8.65049 6.58098 8.1904 5.78716C7.80758 4.95926 7.1055 4.31001 6.23487 3.97878C5.36424 3.64755 4.39448 3.66075 3.53378 4.01555C2.76186 4.52811 2.22803 5.31411 2.04705 6.20457C1.86607 7.09502 2.0524 8.01884 2.56598 8.77739C2.88044 9.37955 3.3537 9.89011 3.9376 10.2571C4.52149 10.6241 5.19517 10.8345 5.89007 10.8667ZM4.53059 5.77108C4.63817 5.7174 4.7578 5.69046 4.87875 5.69265C5.19856 5.7305 5.50304 5.84722 5.76316 6.03169C6.02327 6.21615 6.23035 6.4622 6.36464 6.74637C6.60513 7.15227 6.70331 7.62295 6.64441 8.08765C6.63008 8.22605 6.58437 8.35966 6.51056 8.47891C6.43676 8.59816 6.33668 8.70009 6.2175 8.77739C5.75122 9.02071 4.8746 8.68891 4.37516 7.80411C3.87572 6.91931 4.06016 6.02244 4.53059 5.77108ZM3.52134 11.2307C3.12678 11.1001 2.70649 11.0595 2.29315 11.1122C1.8798 11.1648 1.48454 11.3093 1.13811 11.5344C0.495034 12.0614 0.0911834 12.8125 0.0136477 13.6258C-0.063888 14.4391 0.191104 15.2494 0.723635 15.8819C1.19729 16.5561 1.8861 17.0606 2.6841 17.3177C2.97583 17.4069 3.27972 17.453 3.58559 17.4545C4.11512 17.4594 4.63332 17.3056 5.06941 17.0141C5.71202 16.4868 6.11552 15.7357 6.19304 14.9226C6.27056 14.1094 6.0159 13.2992 5.48388 12.6665C5.01141 11.9904 4.3212 11.4855 3.52134 11.2307ZM3.88608 15.3631C3.79777 15.4106 3.69965 15.4382 3.5989 15.4441C3.49815 15.4501 3.39731 15.4341 3.30374 15.3973C2.94402 15.2741 2.63553 15.0404 2.42506 14.7317C1.97742 14.1083 2.01058 13.4005 2.32144 13.1833C2.40938 13.1276 2.51284 13.0995 2.61779 13.1029C2.71496 13.1044 2.81134 13.12 2.90377 13.1491C3.26215 13.2737 3.56957 13.5071 3.78039 13.8147C4.22802 14.4341 4.20523 15.146 3.87779 15.3631H3.88608ZM11.8834 7.08018C12.1707 7.16274 12.4687 7.20473 12.7683 7.20486C13.2395 7.20735 13.7037 7.09388 14.1174 6.87507C14.516 6.65291 14.8566 6.34475 15.1128 5.97443C15.369 5.60412 15.534 5.18157 15.595 4.73948C15.7172 3.83453 15.5398 2.91531 15.0883 2.11465C14.6368 1.31399 13.9346 0.673351 13.0833 0.285306C12.6687 0.0881378 12.2114 -0.00946464 11.7499 0.000723028C11.2884 0.0109107 10.8361 0.12859 10.4312 0.343846C10.0264 0.559102 9.68075 0.865627 9.4235 1.2376C9.16624 1.60957 9.00489 2.03609 8.95304 2.48122C8.82227 3.3833 9.00145 4.30206 9.46284 5.09541C9.96797 6.04116 10.8381 6.75466 11.8834 7.08018ZM11.4254 2.10719C11.5338 2.05139 11.655 2.02303 11.7777 2.02475C11.9422 2.02801 12.1044 2.06358 12.2543 2.12931C12.6841 2.33915 13.0381 2.6707 13.2694 3.08006C13.5007 3.48943 13.5984 3.95731 13.5496 4.42175C13.5353 4.5604 13.4894 4.69423 13.4152 4.81353C13.341 4.93283 13.2403 5.03461 13.1206 5.1115C13.0191 5.15972 12.9088 5.18793 12.7961 5.19449C12.6833 5.20105 12.5703 5.18582 12.4636 5.1497C11.9513 4.97364 11.5278 4.61385 11.2803 4.14425C11.04 3.7383 10.9418 3.26766 11.0005 2.80297C11.0136 2.66365 11.0585 2.5289 11.132 2.40854C11.2055 2.28818 11.3057 2.18524 11.4254 2.10719ZM19.9408 8.78543C20.2692 8.78639 20.5947 8.7242 20.8982 8.60244C21.6416 8.21977 22.2003 7.56896 22.4539 6.79031C22.7074 6.01166 22.6354 5.16752 22.2535 4.43985C21.9928 3.66244 21.4274 3.01575 20.6794 2.63949C19.9314 2.26323 19.0609 2.1876 18.2559 2.42894C17.5125 2.81161 16.9538 3.46242 16.7003 4.24107C16.4468 5.01972 16.5187 5.86386 16.9006 6.59153C17.1322 7.2047 17.5433 7.73892 18.0833 8.12864C18.6234 8.51836 19.2689 8.74663 19.9408 8.78543ZM19.0517 4.29306C19.4102 4.14626 20.0402 4.50822 20.3407 5.21003C20.6412 5.91184 20.463 6.59957 20.1024 6.74436C19.7418 6.88914 19.1139 6.52919 18.8134 5.82738C18.5129 5.12557 18.6932 4.43784 19.0517 4.29306ZM18.0404 9.87937C15.1266 8.30684 12.702 8.01324 10.8368 9.00664C8.97169 10 7.921 12.1376 7.71583 15.3651C7.64936 15.8188 7.52474 16.2626 7.34488 16.6863C6.81398 17.6469 6.63955 18.7554 6.85085 19.8259C7.06214 20.8965 7.64631 21.864 8.50541 22.5662C9.43762 23.455 10.6826 23.9674 11.9891 24C12.3785 24.0002 12.7662 23.9488 13.1413 23.8472C13.7596 23.6904 14.3298 23.3912 14.8035 22.9749C15.2772 22.5587 15.6404 22.0377 15.8623 21.4562C15.9118 21.1363 16.0495 20.8354 16.2607 20.5851C16.4719 20.3349 16.7488 20.1446 17.0622 20.0345C17.3265 19.8376 17.6407 19.7136 17.9715 19.6758C18.3024 19.6379 18.6377 19.6875 18.9419 19.8193C19.567 19.9509 20.2157 19.934 20.8326 19.7702C21.4496 19.6063 22.0167 19.3003 22.4857 18.8782C23.1017 18.3161 23.5541 17.6063 23.7971 16.8204C24.0402 16.0345 24.0653 15.2003 23.87 14.4019C23.7218 13.321 23.1954 12.3223 22.3791 11.573C21.5627 10.8236 20.5058 10.3691 19.3854 10.2856C18.9217 10.2039 18.47 10.0675 18.0404 9.87937ZM21.8246 14.7257C21.9519 15.1894 21.953 15.6773 21.8277 16.1415C21.7023 16.6058 21.4549 17.0305 21.1096 17.374C20.9003 17.569 20.6488 17.7162 20.3735 17.8049C20.0982 17.8936 19.8059 17.9216 19.518 17.8868C18.9524 17.6822 18.345 17.6103 17.7452 17.677C17.1455 17.7438 16.5706 17.9473 16.0675 18.2709C15.5151 18.5075 15.0284 18.8677 14.6472 19.3222C14.2661 19.7766 14.0014 20.3122 13.8749 20.8851C13.7488 21.1384 13.5669 21.3618 13.342 21.5393C13.1171 21.7169 12.8547 21.8444 12.5735 21.9127C12.0875 22.0097 11.5839 21.9829 11.1117 21.8348C10.6396 21.6868 10.215 21.4227 9.87939 21.0681C8.40593 19.7891 8.77689 18.7676 9.29084 17.3559C9.54135 16.7589 9.70458 16.1308 9.77577 15.4898C9.88561 13.7745 10.3291 11.5645 11.8254 10.7702C12.7022 10.5159 13.6278 10.4618 14.5298 10.6122C15.4318 10.7625 16.2858 11.1132 17.0249 11.6369C17.6208 11.9206 18.2539 12.1236 18.9067 12.2402C20.4195 12.584 21.5054 12.8254 21.8246 14.7257Z" fill="#F0914C"/>
</svg>
