<svg width="24" height="24" viewBox="0 0 24 24" fill="none" xmlns="http://www.w3.org/2000/svg">
<path d="M1.98576 18.2946C2.10309 18.5899 2.33277 18.8265 2.62427 18.9522C2.91577 19.0779 3.24521 19.0826 3.54013 18.9651C3.83504 18.8476 4.07126 18.6176 4.19683 18.3257C4.3224 18.0338 4.32703 17.7039 4.2097 17.4086L2.87055 14.0323L10.8098 12.2722V17.9594C10.8098 18.2769 10.9357 18.5814 11.16 18.806C11.3842 19.0305 11.6883 19.1567 12.0054 19.1567C12.3225 19.1567 12.6267 19.0305 12.8509 18.806C13.0751 18.5814 13.2011 18.2769 13.2011 17.9594V12.2722L21.1403 14.0323L19.8012 17.4086C19.7429 17.5548 19.714 17.7111 19.7162 17.8685C19.7183 18.0259 19.7514 18.1813 19.8136 18.3259C19.8758 18.4705 19.9659 18.6013 20.0786 18.711C20.1914 18.8207 20.3246 18.907 20.4707 18.9651C20.6116 19.0208 20.7617 19.0493 20.9131 19.0489C21.1526 19.0491 21.3866 18.9774 21.5849 18.8429C21.7831 18.7084 21.9365 18.5174 22.0251 18.2946L23.8784 13.6132C23.942 13.4513 23.9696 13.2774 23.9593 13.1037C23.9489 12.93 23.9009 12.7607 23.8186 12.6075C23.7387 12.4548 23.6268 12.3212 23.4906 12.2158C23.3544 12.1105 23.1971 12.0358 23.0295 11.9969L19.1794 11.1468V5.98645C19.1794 5.66891 19.0534 5.36438 18.8292 5.13984C18.605 4.91531 18.3009 4.78916 17.9838 4.78916H15.5924V1.19729C15.5924 0.87975 15.4665 0.575214 15.2422 0.350678C15.018 0.126143 14.7139 0 14.3968 0H9.6141C9.29699 0 8.99287 0.126143 8.76864 0.350678C8.54441 0.575214 8.41844 0.87975 8.41844 1.19729V4.78916H6.02711C5.71 4.78916 5.40588 4.91531 5.18165 5.13984C4.95742 5.36438 4.83144 5.66891 4.83144 5.98645V11.1468L0.981404 11.9729C0.813729 12.0118 0.656418 12.0865 0.520224 12.1919C0.384029 12.2973 0.272161 12.4309 0.192266 12.5835C0.10992 12.7367 0.061913 12.9061 0.0515884 13.0798C0.0412637 13.2535 0.0688691 13.4273 0.132483 13.5893L1.98576 18.2946ZM10.8098 2.39458H13.2011V4.78916H10.8098V2.39458ZM7.22277 7.18375H16.7881V10.608L12.2685 9.57833H12.1489H12.0054H11.862H11.7424L7.22277 10.608V7.18375ZM22.4197 20.6892C22.0001 20.8179 21.5984 20.9989 21.224 21.228C20.8431 21.451 20.4098 21.5686 19.9686 21.5686C19.5273 21.5686 19.094 21.451 18.7131 21.228C17.8848 20.7601 16.9499 20.5142 15.999 20.5142C15.048 20.5142 14.1131 20.7601 13.2848 21.228C12.8987 21.4484 12.4619 21.5644 12.0174 21.5644C11.5729 21.5644 11.1361 21.4484 10.75 21.228C9.92096 20.7623 8.98637 20.5178 8.03583 20.5178C7.08529 20.5178 6.15069 20.7623 5.32167 21.228C4.94077 21.451 4.50747 21.5686 4.06622 21.5686C3.62497 21.5686 3.19167 21.451 2.81077 21.228C2.43633 20.9989 2.03463 20.8179 1.61511 20.6892C1.45601 20.6325 1.28675 20.6103 1.11844 20.6239C0.950141 20.6375 0.786621 20.6866 0.63865 20.768C0.490678 20.8495 0.361609 20.9614 0.25994 21.0964C0.158271 21.2314 0.0863072 21.3864 0.0487861 21.5512C-0.0404754 21.8545 -0.00634271 22.1808 0.143737 22.4589C0.293816 22.737 0.54766 22.9445 0.849881 23.0359C1.09064 23.1012 1.32034 23.2021 1.53141 23.3352C2.25683 23.7614 3.08167 23.9886 3.92274 23.9937C4.79629 23.9939 5.65433 23.7625 6.40972 23.3232C6.87839 23.0643 7.40492 22.9286 7.94017 22.9286C8.47542 22.9286 9.00195 23.0643 9.47062 23.3232C10.2207 23.7527 11.0697 23.9786 11.9337 23.9786C12.7977 23.9786 13.6467 23.7527 14.3968 23.3232C14.8654 23.0643 15.392 22.9286 15.9272 22.9286C16.4625 22.9286 16.989 23.0643 17.4577 23.3232C18.1988 23.7661 19.0457 24 19.9088 24C20.7718 24 21.6188 23.7661 22.3599 23.3232C22.571 23.1901 22.8007 23.0892 23.0414 23.0239C23.2005 22.9917 23.3514 22.9273 23.4849 22.8348C23.6184 22.7423 23.7316 22.6235 23.8178 22.4857C23.9039 22.3479 23.9612 22.194 23.986 22.0333C24.0108 21.8727 24.0026 21.7086 23.9621 21.5512C23.9241 21.3892 23.8528 21.2369 23.7527 21.104C23.6526 20.9711 23.5259 20.8606 23.3808 20.7795C23.2357 20.6983 23.0752 20.6484 22.9097 20.6329C22.7442 20.6173 22.5773 20.6365 22.4197 20.6892Z" fill="#458FFF"/>
</svg>
