<svg width="24" height="18" viewBox="0 0 24 18" fill="none" xmlns="http://www.w3.org/2000/svg">
<path d="M22.8 7.19983H19.8C19.6412 7.20046 19.4842 7.23103 19.3379 7.28977C19.1917 7.34852 19.0591 7.43427 18.948 7.54206L17.46 9.01367L14.1 5.37458C13.9878 5.26061 13.8521 5.16975 13.7014 5.10763C13.5507 5.04552 13.3882 5.01346 13.224 5.01346C13.0598 5.01346 12.8973 5.04552 12.7466 5.10763C12.5959 5.16975 12.4603 5.26061 12.348 5.37458L10.308 7.31391H8.40001C8.08175 7.31391 7.77653 7.4341 7.55148 7.64803C7.32644 7.86197 7.20001 8.15213 7.20001 8.45469C7.20001 8.75724 7.32644 9.0474 7.55148 9.26134C7.77653 9.47528 8.08175 9.59547 8.40001 9.59547H10.8C10.9579 9.59633 11.1145 9.56756 11.2607 9.51079C11.4069 9.45402 11.5399 9.37037 11.652 9.26464L13.2 7.736L16.56 11.3751C16.6684 11.4925 16.801 11.5876 16.9496 11.6543C17.0983 11.721 17.2597 11.758 17.424 11.7629C17.5819 11.7638 17.7385 11.735 17.8847 11.6783C18.0309 11.6215 18.1639 11.5379 18.276 11.4321L20.316 9.48139H22.8C23.1183 9.48139 23.4235 9.3612 23.6485 9.14726C23.8736 8.93332 24 8.64316 24 8.34061C24 8.03806 23.8736 7.74789 23.6485 7.53396C23.4235 7.32002 23.1183 7.19983 22.8 7.19983ZM13.932 13.246L11.652 15.4134C11.5405 15.5204 11.4077 15.6052 11.2615 15.6631C11.1153 15.7211 10.9584 15.7509 10.8 15.7509C10.6416 15.7509 10.4847 15.7211 10.3385 15.6631C10.1923 15.6052 10.0596 15.5204 9.94801 15.4134L3.69601 9.46998C3.28455 9.07906 2.95816 8.6149 2.73546 8.10402C2.51277 7.59314 2.39815 7.04555 2.39815 6.49255C2.39815 5.93954 2.51277 5.39195 2.73546 4.88107C2.95816 4.37019 3.28455 3.90603 3.69601 3.51511C4.52601 2.72862 5.65011 2.28699 6.82201 2.28699C7.99391 2.28699 9.11801 2.72862 9.94801 3.51511C10.0596 3.62203 10.1923 3.7069 10.3385 3.76482C10.4847 3.82273 10.6416 3.85255 10.8 3.85255C10.9584 3.85255 11.1153 3.82273 11.2615 3.76482C11.4077 3.7069 11.5405 3.62203 11.652 3.51511C12.4952 2.75275 13.6144 2.32761 14.778 2.32761C15.9417 2.32761 17.0608 2.75275 17.904 3.51511C18.1714 3.77263 18.4051 4.05991 18.6 4.3707C18.7747 4.59909 19.0324 4.75776 19.3231 4.816C19.6137 4.87423 19.9168 4.82789 20.1736 4.68594C20.4305 4.544 20.6228 4.31654 20.7133 4.04757C20.8039 3.77861 20.7863 3.48727 20.664 3.22992C20.3674 2.76168 20.0129 2.3289 19.608 1.94083C18.4692 0.845516 16.9573 0.171603 15.3432 0.0399031C13.7291 -0.0917968 12.1185 0.327328 10.8 1.22214C9.78104 0.524321 8.57908 0.107688 7.32678 0.0182222C6.07447 -0.0712438 4.82051 0.169936 3.70328 0.715145C2.58605 1.26035 1.64899 2.0884 0.995498 3.10789C0.342012 4.12738 -0.00248943 5.29869 1.35425e-05 6.49255C-0.000345955 7.34139 0.176613 8.18185 0.520625 8.96517C0.864636 9.74848 1.36885 10.4591 2.00401 11.0557L8.25601 16.9991C8.93101 17.64 9.84601 18 10.8 18C11.754 18 12.669 17.64 13.344 16.9991L15.6 14.8545C15.8235 14.6407 15.949 14.3516 15.949 14.0502C15.949 13.7488 15.8235 13.4597 15.6 13.246C15.3762 13.0403 15.0772 12.9254 14.766 12.9254C14.4548 12.9254 14.1558 13.0403 13.932 13.246Z" fill="#FF4949"/>
</svg>
