<svg width="24" height="24" viewBox="0 0 24 24" fill="none" xmlns="http://www.w3.org/2000/svg">
<path d="M20.4 16.8C19.688 16.8 18.992 17.0111 18.3999 17.4067C17.8079 17.8023 17.3465 18.3645 17.074 19.0223C16.8016 19.6802 16.7303 20.404 16.8692 21.1023C17.0081 21.8007 17.3509 22.4421 17.8544 22.9456C18.3579 23.4491 18.9993 23.7919 19.6977 23.9308C20.396 24.0697 21.1198 23.9984 21.7777 23.726C22.4355 23.4535 22.9977 22.9921 23.3933 22.4001C23.7889 21.808 24 21.112 24 20.4C24 19.4452 23.6207 18.5295 22.9456 17.8544C22.2704 17.1793 21.3548 16.8 20.4 16.8ZM20.4 21.6C20.1627 21.6 19.9306 21.5296 19.7333 21.3978C19.536 21.2659 19.3822 21.0785 19.2913 20.8592C19.2005 20.6399 19.1767 20.3987 19.2231 20.1659C19.2694 19.9331 19.3836 19.7193 19.5515 19.5515C19.7193 19.3836 19.9331 19.2694 20.1659 19.2231C20.3987 19.1768 20.6399 19.2005 20.8592 19.2913C21.0785 19.3822 21.2659 19.536 21.3978 19.7333C21.5296 19.9307 21.6 20.1627 21.6 20.4C21.6 20.7183 21.4736 21.0235 21.2485 21.2485C21.0235 21.4736 20.7183 21.6 20.4 21.6ZM8.4 16.8C7.68798 16.8 6.99196 17.0111 6.39994 17.4067C5.80793 17.8023 5.34651 18.3645 5.07403 19.0223C4.80156 19.6802 4.73026 20.404 4.86917 21.1023C5.00808 21.8007 5.35094 22.4421 5.85441 22.9456C6.35788 23.4491 6.99934 23.7919 7.69767 23.9308C8.396 24.0697 9.11984 23.9984 9.77766 23.726C10.4355 23.4535 10.9977 22.9921 11.3933 22.4001C11.7889 21.808 12 21.112 12 20.4C12 19.4452 11.6207 18.5295 10.9456 17.8544C10.2705 17.1793 9.35478 16.8 8.4 16.8ZM8.4 21.6C8.16266 21.6 7.93065 21.5296 7.73331 21.3978C7.53597 21.2659 7.38217 21.0785 7.29134 20.8592C7.20052 20.6399 7.17675 20.3987 7.22305 20.1659C7.26936 19.9331 7.38365 19.7193 7.55147 19.5515C7.71929 19.3836 7.93311 19.2694 8.16589 19.2231C8.39867 19.1768 8.63995 19.2005 8.85922 19.2913C9.07849 19.3822 9.2659 19.536 9.39776 19.7333C9.52962 19.9307 9.6 20.1627 9.6 20.4C9.6 20.7183 9.47357 21.0235 9.24852 21.2485C9.02348 21.4736 8.71826 21.6 8.4 21.6ZM24 7.8C23.9968 5.73229 23.174 3.75017 21.7119 2.28807C20.2498 0.825976 18.2677 0.00317378 16.2 0H15.6C15.2817 0 14.9765 0.126428 14.7515 0.351472C14.5264 0.576515 14.4 0.88174 14.4 1.2V7.2H6.624L5.124 3.18C5.03818 2.95032 4.88407 2.75244 4.6824 2.61299C4.48073 2.47353 4.24119 2.3992 3.996 2.4H1.2C0.88174 2.4 0.576515 2.52643 0.351472 2.75147C0.126428 2.97652 0 3.28174 0 3.6C0 3.91826 0.126428 4.22348 0.351472 4.44853C0.576515 4.67357 0.88174 4.8 1.2 4.8H3.168L4.668 8.844L5.28 10.488V10.596C5.83904 12.0805 6.84138 13.357 8.15093 14.2523C9.46048 15.1475 11.0138 15.618 12.6 15.6H16.2C17.2247 15.6016 18.2397 15.4009 19.1868 15.0095C20.1338 14.6181 20.9943 14.0436 21.7189 13.319C22.4436 12.5943 23.018 11.7339 23.4095 10.7868C23.8009 9.83975 24.0016 8.82475 24 7.8ZM20.016 11.616C19.5162 12.1192 18.9216 12.5183 18.2666 12.7902C17.6116 13.062 16.9092 13.2013 16.2 13.2H12.6C11.5273 13.2033 10.4783 12.8849 9.58846 12.2859C8.6986 11.687 8.00874 10.835 7.608 9.84C7.60279 9.81628 7.60279 9.79172 7.608 9.768L7.512 9.6H21.288C21.0263 10.3617 20.5908 11.0519 20.016 11.616ZM16.8 7.2V2.4C18.0292 2.52821 19.177 3.07512 20.051 3.94904C20.9249 4.82296 21.4718 5.97076 21.6 7.2H16.8Z" fill="#FF4768"/>
</svg>
