<svg width="20" height="24" viewBox="0 0 20 24" fill="none" xmlns="http://www.w3.org/2000/svg">
<path d="M16.25 0H1.25C0.918479 0 0.600537 0.126428 0.366117 0.351472C0.131696 0.576515 0 0.88174 0 1.2V20.4C0 20.7183 0.131696 21.0235 0.366117 21.2485C0.600537 21.4736 0.918479 21.6 1.25 21.6H2.5V22.8C2.5 23.1183 2.6317 23.4235 2.86612 23.6485C3.10054 23.8736 3.41848 24 3.75 24C4.08152 24 4.39946 23.8736 4.63388 23.6485C4.8683 23.4235 5 23.1183 5 22.8V21.6H16.25C17.2446 21.6 18.1984 21.2207 18.9017 20.5456C19.6049 19.8705 20 18.9548 20 18V3.6C20 2.64522 19.6049 1.72955 18.9017 1.05442C18.1984 0.379285 17.2446 0 16.25 0ZM12.5 19.2H2.5V2.4H12.5V19.2ZM17.5 18C17.5 18.3183 17.3683 18.6235 17.1339 18.8485C16.8995 19.0736 16.5815 19.2 16.25 19.2H15V2.4H16.25C16.5815 2.4 16.8995 2.52643 17.1339 2.75147C17.3683 2.97652 17.5 3.28174 17.5 3.6V18Z" fill="#3EB9FF"/>
</svg>
