<svg width="24" height="24" viewBox="0 0 24 24" fill="none" xmlns="http://www.w3.org/2000/svg">
<path d="M20 6.00465H19.5333C19.8376 5.44411 19.9972 4.82894 20 4.20511C20.004 3.36932 19.73 2.55157 19.2131 1.85711C18.6962 1.16266 17.9601 0.623297 17.0997 0.308444C16.2392 -0.00640911 15.2937 -0.0823387 14.3848 0.0904288C13.476 0.263196 12.6454 0.676753 12 1.27787C11.3546 0.676753 10.524 0.263196 9.61518 0.0904288C8.70633 -0.0823387 7.76082 -0.00640911 6.90034 0.308444C6.03986 0.623297 5.30381 1.16266 4.78692 1.85711C4.27003 2.55157 3.99596 3.36932 4 4.20511C4.00285 4.82894 4.16238 5.44411 4.46667 6.00465H4C2.93913 6.00465 1.92172 6.38383 1.17157 7.05879C0.421427 7.73375 0 8.64918 0 9.60372V12.0031C0 12.3213 0.140476 12.6264 0.390524 12.8514C0.640573 13.0764 0.979711 13.2028 1.33333 13.2028H2.66667V20.4009C2.66667 21.3555 3.08809 22.2709 3.83824 22.9459C4.58839 23.6208 5.6058 24 6.66667 24H17.3333C18.3942 24 19.4116 23.6208 20.1618 22.9459C20.9119 22.2709 21.3333 21.3555 21.3333 20.4009V13.2028H22.6667C23.0203 13.2028 23.3594 13.0764 23.6095 12.8514C23.8595 12.6264 24 12.3213 24 12.0031V9.60372C24 8.64918 23.5786 7.73375 22.8284 7.05879C22.0783 6.38383 21.0609 6.00465 20 6.00465ZM10.6667 21.6006H6.66667C6.31305 21.6006 5.97391 21.4742 5.72386 21.2492C5.47381 21.0243 5.33333 20.7191 5.33333 20.4009V13.2028H10.6667V21.6006ZM10.6667 10.8034H2.66667V9.60372C2.66667 9.28554 2.80714 8.98039 3.05719 8.75541C3.30724 8.53042 3.64638 8.40403 4 8.40403H10.6667V10.8034ZM10.6667 6.00465H8.66667C8.2711 6.00465 7.88443 5.89911 7.55553 5.70137C7.22663 5.50363 6.97028 5.22259 6.81891 4.89376C6.66753 4.56494 6.62793 4.20312 6.7051 3.85404C6.78227 3.50496 6.97275 3.18432 7.25245 2.93265C7.53216 2.68098 7.88852 2.50959 8.27649 2.44015C8.66445 2.37072 9.06658 2.40635 9.43203 2.54256C9.79749 2.67876 10.1098 2.90941 10.3296 3.20534C10.5494 3.50128 10.6667 3.8492 10.6667 4.20511V6.00465ZM13.3333 4.20511C13.3333 3.8492 13.4506 3.50128 13.6704 3.20534C13.8902 2.90941 14.2025 2.67876 14.568 2.54256C14.9334 2.40635 15.3356 2.37072 15.7235 2.44015C16.1115 2.50959 16.4678 2.68098 16.7475 2.93265C17.0273 3.18432 17.2177 3.50496 17.2949 3.85404C17.3721 4.20312 17.3325 4.56494 17.1811 4.89376C17.0297 5.22259 16.7734 5.50363 16.4445 5.70137C16.1156 5.89911 15.7289 6.00465 15.3333 6.00465H13.3333V4.20511ZM18.6667 20.4009C18.6667 20.7191 18.5262 21.0243 18.2761 21.2492C18.0261 21.4742 17.687 21.6006 17.3333 21.6006H13.3333V13.2028H18.6667V20.4009ZM21.3333 10.8034H13.3333V8.40403H20C20.3536 8.40403 20.6928 8.53042 20.9428 8.75541C21.1929 8.98039 21.3333 9.28554 21.3333 9.60372V10.8034Z" fill="#FF4185"/>
</svg>
