<svg width="24" height="24" viewBox="0 0 24 24" fill="none" xmlns="http://www.w3.org/2000/svg">
<path d="M18.5717 5.46379L15.1654 2.05649C15.0539 1.94404 14.9213 1.85478 14.7751 1.79387C14.6289 1.73296 14.4722 1.7016 14.3138 1.7016C14.1555 1.7016 13.9987 1.73296 13.8526 1.79387C13.7064 1.85478 13.5738 1.94404 13.4623 2.05649C13.2389 2.28128 13.1135 2.58536 13.1135 2.90231C13.1135 3.21927 13.2389 3.52335 13.4623 3.74814L16.005 6.29162L6.2898 16.0096L3.74706 13.4661C3.52233 13.2427 3.21834 13.1173 2.90148 13.1173C2.58461 13.1173 2.28062 13.2427 2.05589 13.4661C1.94347 13.5777 1.85425 13.7104 1.79335 13.8566C1.73246 14.0028 1.70111 14.1596 1.70111 14.318C1.70111 14.4763 1.73246 14.6332 1.79335 14.7794C1.85425 14.9256 1.94347 15.0583 2.05589 15.1698L5.42623 18.5411L8.79656 21.9124C8.90764 22.0258 9.04011 22.116 9.18629 22.1777C9.33247 22.2395 9.48945 22.2717 9.64814 22.2723C9.88637 22.2737 10.1196 22.2041 10.3181 22.0724C10.5167 21.9406 10.6715 21.7528 10.7628 21.5327C10.8542 21.3126 10.8779 21.0703 10.8311 20.8366C10.7842 20.603 10.6689 20.3886 10.4997 20.2208L7.99296 17.7133L17.7082 7.99527L20.2509 10.5387C20.3627 10.6498 20.4953 10.7378 20.6411 10.7976C20.787 10.8574 20.9431 10.8879 21.1007 10.8873C21.2583 10.8868 21.4143 10.8552 21.5596 10.7943C21.705 10.7335 21.837 10.6446 21.9481 10.5327C22.0591 10.4209 22.147 10.2882 22.2068 10.1424C22.2666 9.99653 22.2971 9.84032 22.2966 9.68268C22.296 9.52504 22.2644 9.36905 22.2036 9.22362C22.1428 9.07819 22.0539 8.94617 21.9421 8.83509L18.5717 5.46379ZM2.05589 18.5531C1.83004 18.3272 1.52372 18.2003 1.20431 18.2003C0.88491 18.2003 0.578588 18.3272 0.352735 18.5531C0.126883 18.779 2.37975e-09 19.0854 0 19.4049C-2.37974e-09 19.7244 0.126883 20.0308 0.352735 20.2567L3.74706 23.6521C3.85913 23.7632 3.99204 23.8512 4.13818 23.9109C4.28431 23.9706 4.44079 24.0009 4.59864 24C4.75649 24.0009 4.91296 23.9706 5.0591 23.9109C5.20523 23.8512 5.33814 23.7632 5.45021 23.6521C5.56263 23.5405 5.65186 23.4078 5.71275 23.2616C5.77365 23.1154 5.805 22.9586 5.805 22.8002C5.805 22.6418 5.77365 22.485 5.71275 22.3388C5.65186 22.1926 5.56263 22.0599 5.45021 21.9484L2.05589 18.5531ZM23.6452 3.74814L20.2509 0.352837C20.1391 0.240974 20.0063 0.152239 19.8602 0.0916994C19.7141 0.0311594 19.5575 0 19.3993 0C19.2412 0 19.0846 0.0311594 18.9384 0.0916994C18.7923 0.152239 18.6596 0.240974 18.5477 0.352837C18.4359 0.464701 18.3472 0.597502 18.2867 0.743658C18.2262 0.889814 18.195 1.04646 18.195 1.20466C18.195 1.36286 18.2262 1.51951 18.2867 1.66567C18.3472 1.81182 18.4359 1.94462 18.5477 2.05649L21.9421 5.45179C22.0536 5.56424 22.1862 5.6535 22.3324 5.71441C22.4785 5.77532 22.6353 5.80667 22.7936 5.80667C22.952 5.80667 23.1087 5.77532 23.2549 5.71441C23.4011 5.6535 23.5337 5.56424 23.6452 5.45179C23.7576 5.34026 23.8469 5.20756 23.9078 5.06136C23.9686 4.91516 24 4.75835 24 4.59997C24 4.44158 23.9686 4.28477 23.9078 4.13857C23.8469 3.99237 23.7576 3.85967 23.6452 3.74814Z" fill="#0654EC"/>
</svg>
