<svg width="24" height="24" viewBox="0 0 24 24" fill="none" xmlns="http://www.w3.org/2000/svg">
<path d="M8.66667 20.2105C8.2711 20.2105 7.88442 20.3217 7.55553 20.5298C7.22663 20.738 6.97028 21.034 6.81891 21.3802C6.66753 21.7264 6.62793 22.1074 6.7051 22.4749C6.78227 22.8424 6.97275 23.1801 7.25245 23.445C7.53216 23.71 7.88852 23.8905 8.27649 23.9636C8.66445 24.0367 9.06658 23.9992 9.43203 23.8558C9.79749 23.7124 10.1098 23.4695 10.3296 23.1579C10.5494 22.8463 10.6667 22.48 10.6667 22.1053C10.6667 21.6027 10.456 21.1208 10.0809 20.7655C9.70581 20.4102 9.1971 20.2105 8.66667 20.2105ZM22.6667 16.4211H6.66667C6.31305 16.4211 5.97391 16.288 5.72386 16.0511C5.47381 15.8142 5.33333 15.4929 5.33333 15.1579C5.33333 14.8229 5.47381 14.5016 5.72386 14.2647C5.97391 14.0278 6.31305 13.8947 6.66667 13.8947H17.9883C18.8568 13.8921 19.7011 13.6228 20.3946 13.1274C21.088 12.6319 21.5933 11.9368 21.8347 11.1464L23.9486 4.13672C24.0053 3.94872 24.0152 3.75082 23.9774 3.5586C23.9397 3.36638 23.8554 3.18507 23.7311 3.02897C23.6068 2.87286 23.446 2.74621 23.2613 2.65899C23.0766 2.57176 22.8731 2.52635 22.6667 2.52632H6.31876C6.04274 1.79035 5.53392 1.1529 4.86163 0.700817C4.18934 0.248738 3.38628 0.00401779 2.56185 0H1.33333C0.979711 0 0.640573 0.133082 0.390524 0.36997C0.140476 0.606858 0 0.928148 0 1.26316C0 1.59817 0.140476 1.91946 0.390524 2.15635C0.640573 2.39323 0.979711 2.52632 1.33333 2.52632H2.56185C2.8513 2.52727 3.13263 2.61703 3.36371 2.78214C3.5948 2.94726 3.76322 3.17885 3.84375 3.44223L4.05111 4.13032L4.05143 4.13672L6.23893 11.39C5.22102 11.4937 4.28383 11.9633 3.62035 12.702C2.95688 13.4406 2.61762 14.3922 2.67244 15.3607C2.72725 16.3292 3.17197 17.241 3.91502 17.9082C4.65806 18.5754 5.64288 18.9473 6.66667 18.9474H22.6667C23.0203 18.9474 23.3594 18.8143 23.6095 18.5774C23.8595 18.3405 24 18.0192 24 17.6842C24 17.3492 23.8595 17.0279 23.6095 16.791C23.3594 16.5541 23.0203 16.4211 22.6667 16.4211ZM20.8991 5.05263L19.2708 10.4519C19.1904 10.7155 19.0219 10.9473 18.7907 11.1125C18.5595 11.2778 18.2779 11.3676 17.9883 11.3684H9.00585L8.66593 10.2414L7.10189 5.05263H20.8991ZM19.3333 20.2105C18.9378 20.2105 18.5511 20.3217 18.2222 20.5298C17.8933 20.738 17.6369 21.034 17.4856 21.3802C17.3342 21.7264 17.2946 22.1074 17.3718 22.4749C17.4489 22.8424 17.6394 23.1801 17.9191 23.445C18.1988 23.71 18.5552 23.8905 18.9432 23.9636C19.3311 24.0367 19.7332 23.9992 20.0987 23.8558C20.4642 23.7124 20.7765 23.4695 20.9963 23.1579C21.216 22.8463 21.3333 22.48 21.3333 22.1053C21.3333 21.6027 21.1226 21.1208 20.7475 20.7655C20.3725 20.4102 19.8638 20.2105 19.3333 20.2105Z" fill="#FFA928"/>
</svg>
