<svg width="24" height="20" viewBox="0 0 24 20" fill="none" xmlns="http://www.w3.org/2000/svg">
<path d="M20.4 6.66668H20.016L18.516 2.50668C18.2481 1.76702 17.7874 1.1332 17.193 0.686555C16.5986 0.239913 15.8976 0.000838272 15.18 1.6397e-05H7.98C7.14635 -0.00263473 6.3377 0.316271 5.6921 0.9023C5.04649 1.48833 4.60395 2.30515 4.44 3.21335L3.816 6.66668H3.6C2.64522 6.66668 1.72955 7.0881 1.05442 7.83825C0.379285 8.5884 0 9.60581 0 10.6667V14.6667C0 15.0203 0.126428 15.3594 0.351472 15.6095C0.576515 15.8595 0.88174 16 1.2 16H2.4C2.4 17.0609 2.77928 18.0783 3.45442 18.8284C4.12955 19.5786 5.04522 20 6 20C6.95478 20 7.87045 19.5786 8.54559 18.8284C9.22072 18.0783 9.6 17.0609 9.6 16H14.4C14.4 17.0609 14.7793 18.0783 15.4544 18.8284C16.1295 19.5786 17.0452 20 18 20C18.9548 20 19.8705 19.5786 20.5456 18.8284C21.2207 18.0783 21.6 17.0609 21.6 16H22.8C23.1183 16 23.4235 15.8595 23.6485 15.6095C23.8736 15.3594 24 15.0203 24 14.6667V10.6667C24 9.60581 23.6207 8.5884 22.9456 7.83825C22.2705 7.0881 21.3548 6.66668 20.4 6.66668ZM13.2 2.66668H15.18C15.4183 2.66908 15.6505 2.75025 15.8471 2.89984C16.0438 3.04944 16.1958 3.26069 16.284 3.50668L17.424 6.66668H13.2V2.66668ZM6.792 3.73335C6.8481 3.42765 6.99891 3.15348 7.21817 2.95858C7.43743 2.76368 7.71126 2.66039 7.992 2.66668H10.8V6.66668H6.264L6.792 3.73335ZM6 17.3333C5.76266 17.3333 5.53065 17.2551 5.33332 17.1086C5.13598 16.9621 4.98217 16.7539 4.89134 16.5102C4.80052 16.2666 4.77676 15.9985 4.82306 15.7399C4.86936 15.4812 4.98365 15.2437 5.15147 15.0572C5.31929 14.8707 5.53311 14.7437 5.76589 14.6923C5.99867 14.6408 6.23995 14.6672 6.45922 14.7682C6.67849 14.8691 6.86591 15.04 6.99776 15.2592C7.12962 15.4785 7.2 15.7363 7.2 16C7.2 16.3536 7.07357 16.6928 6.84853 16.9428C6.62348 17.1929 6.31826 17.3333 6 17.3333ZM18 17.3333C17.7627 17.3333 17.5307 17.2551 17.3333 17.1086C17.136 16.9621 16.9822 16.7539 16.8913 16.5102C16.8005 16.2666 16.7768 15.9985 16.8231 15.7399C16.8694 15.4812 16.9836 15.2437 17.1515 15.0572C17.3193 14.8707 17.5331 14.7437 17.7659 14.6923C17.9987 14.6408 18.24 14.6672 18.4592 14.7682C18.6785 14.8691 18.8659 15.04 18.9978 15.2592C19.1296 15.4785 19.2 15.7363 19.2 16C19.2 16.3536 19.0736 16.6928 18.8485 16.9428C18.6235 17.1929 18.3183 17.3333 18 17.3333ZM21.6 13.3333H20.664C20.3266 12.9209 19.9153 12.5913 19.4565 12.3658C18.9978 12.1403 18.5017 12.0238 18 12.0238C17.4983 12.0238 17.0022 12.1403 16.5435 12.3658C16.0847 12.5913 15.6734 12.9209 15.336 13.3333H8.664C8.32658 12.9209 7.9153 12.5913 7.45654 12.3658C6.99778 12.1403 6.50166 12.0238 6 12.0238C5.49834 12.0238 5.00222 12.1403 4.54346 12.3658C4.0847 12.5913 3.67342 12.9209 3.336 13.3333H2.4V10.6667C2.4 10.3131 2.52643 9.97392 2.75147 9.72387C2.97652 9.47382 3.28174 9.33334 3.6 9.33334H20.4C20.7183 9.33334 21.0235 9.47382 21.2485 9.72387C21.4736 9.97392 21.6 10.3131 21.6 10.6667V13.3333Z" fill="#A35AFF"/>
</svg>
