<svg width="24" height="24" viewBox="0 0 24 24" fill="none" xmlns="http://www.w3.org/2000/svg">
<path d="M17.6842 3.51141C16.5721 3.51057 15.4806 3.798 14.5263 4.34301C13.8344 2.8278 12.6194 1.58445 11.0836 0.819999C9.54782 0.0555496 7.7839 -0.183864 6.08559 0.141625C4.38729 0.467114 2.85708 1.33786 1.7498 2.60887C0.642513 3.87988 0.0249688 5.47445 0 7.12704V11.9479C0.00181369 13.6555 0.636943 15.3075 1.79291 16.6111C2.94887 17.9148 4.55108 18.7861 6.31579 19.0707V22.7948C6.31579 23.1144 6.44887 23.421 6.68576 23.647C6.92265 23.873 7.24394 24 7.57895 24C7.91396 24 8.23525 23.873 8.47213 23.647C8.70902 23.421 8.8421 23.1144 8.8421 22.7948V19.0707C10.1289 18.8576 11.3375 18.335 12.3537 17.5521C12.8047 18.2427 13.3975 18.839 14.0966 19.3051C14.7956 19.7711 15.5863 20.0973 16.4211 20.2638V22.7948C16.4211 23.1144 16.5541 23.421 16.791 23.647C17.0279 23.873 17.3492 24 17.6842 24C18.0192 24 18.3405 23.873 18.5774 23.647C18.8143 23.421 18.9474 23.1144 18.9474 22.7948V20.2638C20.3739 19.986 21.6561 19.2464 22.5768 18.1703C23.4975 17.0941 24.0003 15.7475 24 14.3583V9.53747C24 7.93926 23.3346 6.40651 22.1501 5.2764C20.9657 4.1463 19.3593 3.51141 17.6842 3.51141ZM11.3684 9.53747V14.3583C11.3805 14.5885 11.4058 14.8178 11.4442 15.0453C10.7687 15.813 9.8591 16.3606 8.8421 16.6121V13.1531C8.8421 12.8335 8.70902 12.5269 8.47213 12.3009C8.23525 12.0749 7.91396 11.9479 7.57895 11.9479C7.24394 11.9479 6.92265 12.0749 6.68576 12.3009C6.44887 12.5269 6.31579 12.8335 6.31579 13.1531V16.6C5.23393 16.3335 4.27517 15.7323 3.5895 14.8906C2.90384 14.0488 2.52994 13.014 2.52632 11.9479V7.12704C2.52302 6.17199 2.81711 5.23753 3.37129 4.44219C3.92546 3.64686 4.71474 3.0265 5.639 2.65981C6.56325 2.29313 7.58084 2.19664 8.56266 2.38258C9.54448 2.56853 10.4463 3.02854 11.1537 3.70424C11.8375 4.36547 12.303 5.20353 12.4926 6.11467C11.7624 7.12027 11.3703 8.3141 11.3684 9.53747ZM21.4737 14.3583C21.4715 15.1043 21.2275 15.8313 20.7752 16.4398C20.3229 17.0483 19.6845 17.5084 18.9474 17.757V13.1531C18.9474 12.8335 18.8143 12.5269 18.5774 12.3009C18.3405 12.0749 18.0192 11.9479 17.6842 11.9479C17.3492 11.9479 17.0279 12.0749 16.791 12.3009C16.5541 12.5269 16.4211 12.8335 16.4211 13.1531V17.757C15.6839 17.5084 15.0455 17.0483 14.5932 16.4398C14.1409 15.8313 13.8969 15.1043 13.8947 14.3583V9.53747C13.8947 8.57854 14.294 7.65889 15.0046 6.98083C15.7153 6.30276 16.6792 5.92183 17.6842 5.92183C18.6892 5.92183 19.6531 6.30276 20.3638 6.98083C21.0744 7.65889 21.4737 8.57854 21.4737 9.53747V14.3583Z" fill="#1BCE63"/>
</svg>
